<svg xmlns="http://www.w3.org/2000/svg" viewBox="0 0 512 512">
  <defs>
    <radialGradient id="bg" cx="50%" cy="42%" r="68%">
      <stop offset="0" stop-color="#17345f"/>
      <stop offset="0.55" stop-color="#071225"/>
      <stop offset="1" stop-color="#02050c"/>
    </radialGradient>
    <linearGradient id="glow" x1="0" y1="0" x2="1" y2="1">
      <stop stop-color="#7de6ff"/>
      <stop offset="1" stop-color="#a989ff"/>
    </linearGradient>
    <filter id="blur"><feGaussianBlur stdDeviation="8"/></filter>
  </defs>
  <rect width="512" height="512" rx="112" fill="url(#bg)"/>
  <circle cx="256" cy="250" r="170" fill="none" stroke="#7de6ff" stroke-opacity=".2" stroke-width="3"/>
  <circle cx="256" cy="250" r="136" fill="none" stroke="#a989ff" stroke-opacity=".2" stroke-width="2" stroke-dasharray="8 15"/>
  <ellipse cx="256" cy="238" rx="105" ry="145" fill="none" stroke="url(#glow)" stroke-width="5"/>
  <ellipse cx="215" cy="225" rx="28" ry="10" fill="#7de6ff" filter="url(#blur)"/>
  <ellipse cx="297" cy="225" rx="28" ry="10" fill="#7de6ff" filter="url(#blur)"/>
  <ellipse cx="215" cy="225" rx="20" ry="5" fill="#d9fbff"/>
  <ellipse cx="297" cy="225" rx="20" ry="5" fill="#d9fbff"/>
  <path d="M221 316 Q256 331 291 316" fill="none" stroke="#7de6ff" stroke-width="4" stroke-linecap="round"/>
  <g fill="#7de6ff">
    <circle cx="178" cy="166" r="4"/><circle cx="329" cy="172" r="3"/><circle cx="202" cy="118" r="3"/><circle cx="304" cy="124" r="4"/><circle cx="161" cy="262" r="3"/><circle cx="349" cy="270" r="4"/><circle cx="208" cy="366" r="3"/><circle cx="301" cy="371" r="3"/>
  </g>
</svg>
